<svg xmlns="http://www.w3.org/2000/svg" viewBox="0 0 382.98 382.86"><g id="Layer_2" data-name="Layer 2"><g id="Layer_1-2" data-name="Layer 1"><path d="M81.2,206.69c4.91-4.9,9.31-9.6,14-13.93,2.9-2.65,5.67-2.36,7.5,0s1,4.68-1.84,7.37c-3.85,3.63-7.48,7.51-11.2,11.28,6.35,6.29,11.38,5.29,14.31-2a60.39,60.39,0,0,1,3.31-7.49c1.5-2.61,4-3.59,6.66-1.81,2.48,1.63,2.59,4,1.26,6.56-2.35,4.62-4.55,9.31-7.1,14.56,4.8.79,10,2.14,15.21,2.41a195.6,195.6,0,0,0,51.69-4.06,12.13,12.13,0,0,0,8.19-5.88,42,42,0,0,0,6.34-22c.19-13.83-3.13-26.45-13.45-36.44-2.18-2.11-2.79-4.45-.68-6.92,1.9-2.22,4.62-2.13,7.21.34,10.4,9.9,15.23,22.39,16,36.41.37,6.76-.48,13.59-.77,20.35L223.53,201q.93-.17,1.86-.27c4-.4,6.47,1.06,6.81,4.05.32,2.78-1.61,4.66-5.54,5.24-4.49.67-9,1.26-13.5,2.25,24.77,11.72,51,13.21,78.28,11.15-1.39-.78-2.52-1.37-3.59-2-12.28-7.52-21.54-17.32-24.25-32.06-.24-1.33-.78-3.08-.19-4,1-1.59,2.72-3.51,4.34-3.72,1.33-.17,3.45,1.65,4.32,3.12s.73,3.88,1.26,5.79a32.89,32.89,0,0,0,10,15.94,60,60,0,0,0,37.3,15.44c7,.39,14.12-1.27,21.16-2.21,11.24-1.51,22.46-3.18,33.69-4.78.25,0,.5-.05.75-.08,3.07-.36,5.66.32,6.11,3.83s-1.64,4.91-4.82,5.35c-13.71,1.89-27.42,3.78-41.11,5.78-24,3.51-48.29,2.66-72.45,3.87-6.47.32-12.87,2.33-19.3,3.56v1.18c.5.41,1.24.73,1.47,1.27.64,1.51,1.88,3.45,1.4,4.59a7.06,7.06,0,0,1-4.16,3.53c-13.2,3.62-26.48,7-39.72,10.43a8.2,8.2,0,0,0-3.91,2.22c3.16,0,6.31,0,9.47,0,9.35,0,18.74-.46,28,.24,14.48,1.08,28.62-.5,42.68-3.69,10.78-2.45,21.72-2.69,32.73-2.73,21.08-.06,42.17-.52,63.25-.86,4-.07,6.12,1.22,6.34,4.16.23,3.09-1.88,5-6,5.06-21.34.31-42.67.81-64,.74a158.94,158.94,0,0,0-36.35,3.77,128.56,128.56,0,0,1-39,2.55c-8.56-.66-17.2-.33-25.8-.41-3.87,0-7.76.26-11.59-.08-8.57-.75-11.64-4.94-10-13.64a20.87,20.87,0,0,0-3.23.21c-2.56.54-5.11,1.81-7.63,1.72-18.33-.63-36.65-1.49-55-2.36A124.42,124.42,0,0,1,83,246c-18.76-7.55-38.38-11.49-58-15.4-1-.2-1.95-.42-2.93-.61C5.9,226.86-2.32,214.16.57,197.83c1.68-9.48,6.91-16.08,14.65-21.11,2.7-1.76,5.53-3.34,8.59-5.17-.4-1.87-.89-3.9-1.26-5.94-1.19-6.58-.12-12.63,4.17-18a3.43,3.43,0,0,0,.85-2.51c-5.14-18,1.52-32.75,14.41-44.42,21.38-19.37,46.71-27.22,75.4-21.3,13.15,2.71,24.18,9.71,33.48,19.42,1.16,1.21,2.83,1.91,4.14,3,4.69,4,9.32,8,13.62,11.65-2.35-8.86,2.63-17.61,4.24-26.89.72-4.17.12-7.73-2.91-10.64C163.75,70,157.45,64.17,151,58.12c-.82.77-1.24,1.16-1.65,1.56-7.16,6.91-16.93,6.49-22.79-1.46-12.2-16.57-24.15-33.33-36.15-50-2-2.78-1.62-5.76.76-7.22C94-.74,96.22.3,98,2.72q9.28,12.9,18.53,25.84c.85,1.18,1.72,2.33,3,4.13,2-9,6.72-15.54,12.2-21.79C140.84.51,152.08-1.57,165,1c5.2,1,8.41,3.67,11.25,8.13Q192.2,34.24,209,58.8c4.49,6.53,10.11,12.28,15.61,18.84,4.33-7.48,10.36-10,18.44-8.82,0-6.16,0-12.12,0-18.07,0-8.62,3.81-13.91,11.9-17.08a4.55,4.55,0,0,0,2.39-3c1.1-7.9,1.95-15.83,2.88-23.76a24.93,24.93,0,0,1,.31-2.6c.67-3,2.47-4.76,5.59-4.19C269,.67,270,2.92,269.7,5.77c-.81,7.18-1.65,14.37-2.45,21.55-.19,1.71-.27,3.43-.41,5.17,1.79.55,3.36.9,4.83,1.5,7.12,2.87,10.68,9.61,9.21,17.62-2.46,13.35-5,26.67-7.53,40-.24,1.3-.28,2.64-.43,4.09,4-.93,7.76-6.76,7.56-11.37a21.15,21.15,0,0,0-.31-2.22c-.45-2.94.76-5,3.63-5.58s4.59.93,5.4,3.48c2.33,7.3-.18,13.43-4.74,19-3.27,4-3.93,8.78-4.31,13.59l1.12.64a32.08,32.08,0,0,0,3.24-3.68c2.37-3.66,4.57-7.43,6.86-11.15,1.61-2.63,3.88-3.63,6.62-2s2.76,4.23,1.25,6.82c-2,3.44-4.2,6.79-6.13,10.28-.46.82-.24,2-.33,3,1-.21,2.22-.13,3-.67,6.31-4.44,11.26-18,8.91-25.26-.81-2.49-2.64-4.73-4.31-6.85-3.22-4.11-7-7.82-9.92-12.12a19.45,19.45,0,0,1-2.62-17.52q8.25-25.41,16.68-50.75c.9-2.72,3-4,5.86-3.24S314.25,3.6,313.13,7c-3.76,11.35-7.66,22.65-11.44,34q-2.29,6.91-4.32,13.91c-1.53,5.37-.79,10.41,2.86,14.78q3.12,3.74,6.52,7.21c8.9,9.13,10.71,19.23,5.45,30.84-.31.67-.56,1.37-1,2.5l14.61,1.64c10.29,1.13,20.62,2,30.85,3.49,6.16.9,11.86-.5,17.68-1.78.85-.18,1.7-.42,2.55-.56,2.95-.48,5.4.26,6,3.48s-1.09,4.79-4.1,5.64a64.32,64.32,0,0,1-26.56,2.08c-14.83-2-29.75-3.3-44.62-5-3.12-.35-4.64,1.46-4.64,4,0,9.73-4.62,17.1-12.05,22.55-16.47,12.07-34.55,14.22-53.43,6.65-4.93-2-9.08-5.93-13.68-9-.23,1.13-.21,3.06-1,4.53-1.72,3.07-3.4,6.44-6,8.7-3.49,3.07-8.33,1.71-12.35-2.21-1.11-1.08-2.8-1.61-4.28-2.26-.9-.39-1.93-.46-2.87-.77-4.48-1.46-6.87-5.94-12-7.21-4.1-1-7.25-5.83-10.83-8.95-1.08,2.86-3.6,6.07-7.48,5.36s-7.54-2.86-10.84-5.08c-1-.64-1-4.28-.13-5.47s3.56-1.22,5.48-1.37c.79-.06,1.67.9,3.11,1.75-2-7.52-4.75-13.94-10.53-18.6a9,9,0,0,0-3.69-1.69c-3.48-.72-5.31,1.17-4.66,4.62a3.77,3.77,0,0,0,.49,1.4c2.38,3.6.43,7-2.07,7.82-2.73.93-5.11-.61-6.63-4.45-.55-1.37-.91-2.81-1.62-5a42.25,42.25,0,0,0-2.81,5.08c-3.94,10.34-11.55,16.87-21.41,21.27-12.63,5.64-26,8.4-39.5,11.06-11.2,2.21-15.22,7.82-14.48,19.41.93,14.54,8.2,25,19.94,32.87C78.94,205,80.24,206,81.2,206.69ZM186,133.77l.77-.38c-.58-3.3-1.11-6.61-1.77-9.89s.45-5.92,3.27-6.43c3.15-.57,5.05,1.11,5.68,4.05.76,3.52,1.16,7.12,1.87,10.66.69,3.37,1.57,6.69,2.37,10l1.7-.31c-.59-7.89-1.12-15.78-1.79-23.66-.26-3,.57-5.35,3.68-5.95s4.9,1.19,5.44,4.23a28.74,28.74,0,0,1,.52,3.69c.35,6.85.59,13.7,1,20.54.16,2.9.1,6,3.6,8.55a54.66,54.66,0,0,0,1.32-7.22c.2-4.36-.11-8.74.14-13.09.35-6.11-1.91-12.72,3.14-18,.24-.24.24-.7.39-1,2-4.67,3.69-9.53,6.18-13.94,1.94-3.45,1.13-5.39-1.4-8-7.28-7.49-15.17-14.64-21.13-23.11-11.6-16.5-22-33.81-33-50.75-.77-1.19-1.77-2.65-3-3.07-13.9-4.77-31.18,5.19-34.66,19.9,5.77,4.49,11.74,8.8,17.34,13.56q14.52,12.33,28.63,25.15c5.54,5,7.1,11.56,5.55,18.8-.92,4.25-2.08,8.45-3.13,12.68-2.66,10.79.18,20.68,5,30.22A17.15,17.15,0,0,0,186,133.77ZM48.46,162.21c.38-1.57.54-2.39.76-3.18,2.44-8.72,7.83-14.24,16.94-15.88,5.4-1,10.78-2,16.13-3.22,10.22-2.32,20.39-4.89,29.55-10.2,2.87-1.66,5.35-4,8-6a11.08,11.08,0,0,0-4.57-.16c-10.7.51-21.41,1-32.12,1.44-7.38.28-14.73.68-21.46,4.18-2.83,1.47-5.33,1.49-7.14-1.4-1.55-2.46-.47-5.69,3-6.84,6-2,12.1-4.09,18.31-4.7,9.66-1,19.44-.62,29.16-1,7.27-.26,14.55-1,20.75-5.22,4.62-3.18,8.45-7.66,15.22-7.36a48.59,48.59,0,0,0-18.41-12c-28.27-11-64.6,3.23-78.66,21.46a41.91,41.91,0,0,0-7.46,14.41C32.79,140.43,39.57,151.34,48.46,162.21Zm126,85.72a6.92,6.92,0,0,0-1.91-.9c-6.16-.81-12.32-1.61-18.5-2.31-3.5-.39-5.51-2.15-5.36-5s2.31-4.5,5.83-4.38c3.11.11,6.25.2,9.33.62,7,1,14.56,1.36,19.74,6.82,3.05,3.2,6.31,3.95,10.15,4.09a59.68,59.68,0,0,0,9,0c4-.45,7.87-1.39,11.79-2.13l-.06-1.21c-1.72-.58-3.42-1.26-5.17-1.73-13-3.5-26-7-39-10.37a19.75,19.75,0,0,0-7.31-.38c-15.77,2-31.57,3.15-47.37.9-17.57-2.49-32.4-11.06-45.87-22.15-2.82-2.32-5.34-3.88-9.25-3-2.18.47-4.73-.16-7-.78-8.52-2.33-14.5-8-19.24-15.16-2.26-3.41-4.33-6.93-6.62-10.6-2.4,1.43-4.71,2.66-6.85,4.14a52.36,52.36,0,0,0-5.5,4.47,17.44,17.44,0,0,0-5.68,12.59c-.54,11,4.36,17.3,15,19.67,15.67,3.5,31.38,6.92,46.88,11.09C82,235,92,239.75,102.59,242.49,126.1,248.58,150.4,246.16,174.41,247.93ZM292.93,128.18l-10.15-5.82c-7.49,1.3-12-2-12-10.6,0-4,.08-7.51-4.39-9.18-.52-.2-.8-1-1.27-1.35-.86-.72-1.77-1.38-2.66-2.07a12.79,12.79,0,0,0-1,3.35c0,6.85.08,13.7.2,20.55,0,3.14-1.39,5.12-4.52,5.24-3,.11-4.57-1.76-4.68-4.7-.23-5.6-.37-11.2-.51-16.8,0-2.26,0-4.53,0-6.79l-1.46-.53c-2.74,4.92-5.72,9.73-8.16,14.79-1.8,3.75-3.73,5.39-6.53,4.3s-3.77-3.72-2-7.55c2-4.56,4.48-8.94,6.77-13.45-1,.33-2.1,1.08-3.08,1-6.43-.76-7.6,4.17-9.37,8.44a26.79,26.79,0,0,0-1.38,4.26c-2.87,12.88.06,25.85,12.81,32.3,13.81,7,35.41,4.22,46.61-6.45C288.94,134.44,290.88,130.92,292.93,128.18ZM237.64,230.35A2.1,2.1,0,0,0,237,230c-13.33-2.85-26.12-7.1-38.06-13.86-1.58-.9-5.08-.41-6.47.82-2.78,2.43-4.7,5.83-7.06,8.93,9.3,2.58,18.43,5,27.51,7.67,4.55,1.31,9,2.82,11.79,7.26.34.56,2.71.69,3.26.13C231.29,237.55,234.41,233.93,237.64,230.35Zm14.44-174c2.51-.58,4.8-1.13,7.09-1.65,3.71-.85,6.16.3,6.84,3.2.62,2.62-1.07,4.85-4.49,5.76-3.21.85-6.45,1.59-9.55,2.35v7.16c2.28-.49,4.23-.84,6.15-1.32,5.19-1.31,6.2-.88,8.68,4.22,1.34-8.45,2.67-16.51,3.9-24.59,1.05-6.91-4.46-11.65-11.26-9.79C253.12,43.37,250.93,47.52,252.08,56.3ZM55.06,196c-1.32-3.1-3.22-6-3.81-9.2-1.48-8-5.66-14.3-11.16-20.07-2.83-3-5-6.61-7.54-10.1C27.89,166.82,44.08,194.85,55.06,196ZM251.35,82.88c.35,1.85.22,5.16,1.17,5.51a22.29,22.29,0,0,0,9.39,1.09c1-.09,1.89-3,2.48-4.7.74-2.19,1.11-4.5,1.7-7-1,.83-1.71,1.77-2.58,2C259.7,80.88,255.84,81.76,251.35,82.88Zm-8.47-1.07c-.53-3.77-1.54-4.89-4.69-3.74-2,.74-4.57,2.45-5,4.22-.58,2.13.79,4.78,1.32,7.21,1.84-.79,4-1.2,5.43-2.48S241.92,83.59,242.88,81.81ZM143.16,52.45l-13.5-10.52-.91.7c1.7,3.21,3.11,6.62,5.16,9.6C136.65,56.2,139,56.18,143.16,52.45Z"></path><path d="M58.88,309.09c1.28-4,2.25-7.76,3.67-11.31,1.19-3,3.27-5.51,6.81-5.65s5.47,2.37,6.72,5.14c1.63,3.61,2.81,7.41,4.26,11.35,6.59.89,13.64,1.54,20.56,2.88a61.72,61.72,0,0,1,12.7,4.17c4,1.72,5.83,5.07,5.79,9.6-.12,12.34-.19,24.69,0,37,.1,5.8-2.19,10.29-7.23,12.43a77.64,77.64,0,0,1-18.75,5.78,155,155,0,0,1-53.56-1,41.07,41.07,0,0,1-8.14-2.68c-6.56-2.84-10-7.53-9.79-15.13.36-12.09.09-24.19.1-36.28,0-6.23,1.59-9.19,7.63-10.73,8.77-2.24,17.75-3.66,26.64-5.4A20.36,20.36,0,0,1,58.88,309.09ZM31.22,333.14v26.15c0,7.09.81,8.22,7.53,10.31a34.07,34.07,0,0,0,4,1,153.82,153.82,0,0,0,47.64,1.07c5.25-.65,10.39-2.41,15.49-3.93,2.89-.86,4.33-2.88,4.1-6.23-.3-4.34-.07-8.72-.07-13.08V333.14A169.09,169.09,0,0,1,31.22,333.14Zm2.62-10.91.26,1.4C45.34,327.1,57,328,68.66,328.23c.67,0,1.93-1,2-1.58.13-6.51.08-13,.08-19.55l-1.44,0c-.51,3.92-1,7.84-1.52,11.78-.29,2.48-1.35,4.31-4,4.67a4.34,4.34,0,0,1-5.18-3.22c-.18-.56-.48-1.09-1-2.2Zm73.31,2.11.17-2.25-26.67-4.37v10.87Z"></path><path d="M319.19,333.89c-2,2.66-4,5.26-5.93,8-3.74,5.39-8.41,7.61-13.95,6.48s-9.14-5-10-11.55c-1.43-10.37,1.37-19.15,10.44-25.25-4.53-3.87-5.3-6.66-3.47-12.47,3.39-10.75,16.45-18.29,27.16-15.08,3.62,1.08,6.72,3.9,10,5.9a45.6,45.6,0,0,1,3.81-5.4,12,12,0,0,1,9.95-4.31,35.45,35.45,0,0,1,21.22,8.24c7.2,6.13,6,12.92-2.9,16.31-.34.13-.65.32-1.53.76,1.47.69,2.58,1.22,3.71,1.73,6.28,2.81,11.14,7,13.45,13.73,4,11.71-4.26,23.65-15.81,22.66a39.84,39.84,0,0,1-6.07-1.49c-.62,1.26-1.28,2.83-2.13,4.28-6.05,10.22-24.48,13.11-33.47,5.28-4.23-3.69-4.8-8.51-4.25-13.67.14-1.22.41-2.44.62-3.65ZM305,302.55a19.47,19.47,0,0,1,3.57.67c4.37,1.71,8.87,3.21,12.92,5.51,1.42.8,2.4,3.73,2.26,5.59-.19,2.57-2.67,3.24-5.15,3.15a61.14,61.14,0,0,0-6.35,0c-10,.74-15.63,7.78-13.86,17.65a5.09,5.09,0,0,0,2.72,3.52c1.07.31,3-.79,3.93-1.79,1.54-1.58,2.53-3.69,3.94-5.43,4.13-5.11,8.78-9.7,15.41-11.23,1.92-.45,4.75-.14,6.07,1,1.09,1,.94,3.8.68,5.72-.43,3.18-1.68,6.27-2.06,9.46-.93,7.66,1.84,10.45,9.69,9.95a20,20,0,0,0,5.46-1.1c4.9-1.76,7.17-5.84,5.29-10.68-1.22-3.14-3.47-6-5.6-8.65-1.78-2.24-3.26-4.36-1.1-6.93s5-2.2,7.27-.13c3,2.75,5.66,5.88,8.49,8.83,1.79,1.87,3.39,4,5.47,5.49,2.66,1.89,5.22,1,7.1-1.6,2.7-3.8,2.24-8.43-1.3-11.86a21.87,21.87,0,0,0-15.42-6.59c-1.12,0-2.37.26-3.33-.13-1.62-.67-3.8-1.44-4.38-2.77a5.49,5.49,0,0,1,1-5c4.2-3.8,8.8-7.16,13.44-10.83-2.64-1.18-5.71-2.81-9-4-6.8-2.39-8.79-1.34-11.17,5.44a13.52,13.52,0,0,0-.85,3.62c-.18,3.35-.28,6.7-.25,10.06,0,2.86-1,5-3.92,5.45-3.21.49-4.84-1.47-5.38-4.42-.24-1.34-.18-2.73-.3-4.09-.51-5.51-5.57-12.94-9.47-13.92C314.63,291.08,307.15,295.57,305,302.55Z"></path><path d="M269.58,344.61c5.48,4.49,9.63,9.32,10.37,16.26,1,9.39-7,18.69-16.08,18.05-3-.22-5.92-1.86-9.19-3-7.24,8.7-22.62,9.43-31.57.76-4-3.86-4.79-8.58-3.09-13.77a15.14,15.14,0,0,0,1.19-4.6c-2,1.5-4.07,3-6.05,4.53-5,3.95-10.48,4.69-14.88,1.94s-6.67-8.67-5.35-14.47c1.95-8.6,6.59-15,15.31-17.72-3.41-9.86,2.64-18.68,13.95-20.45,9.77-1.54,15.94,1.39,21.35,10.26,1.19-1.07,2.28-2.23,3.54-3.16,3.65-2.68,7.68-3.64,12-1.83a36.16,36.16,0,0,1,16.38,13.17c4.57,6.76,2,12.38-6.1,13.71ZM219.09,326c4,3.39,8.24,6.47,11.8,10.16,1.14,1.19,1.39,4.45.56,5.94-.69,1.23-3.57,1.72-5.46,1.69-2.31,0-4.59-1.08-6.92-1.48-7.37-1.27-11.91.92-14,7.29-.73,2.24-1.18,5.9,0,7.17,2.33,2.42,4.33-.89,6.15-2.27,5.67-4.33,11.73-7.66,19.06-7.66,5.18,0,7,3,4.69,7.63-1.34,2.67-2.91,5.22-4.22,7.9-3.21,6.58-2.07,9,5.08,10.83a16.07,16.07,0,0,0,4.44.35c5.92-.19,8.74-3.43,7.64-9.24a36.22,36.22,0,0,0-2.84-7.65c-1.09-2.49-1-4.72,1.3-6.29s4.8-1.21,6.28,1.07c2.2,3.42,4,7.12,5.87,10.74.91,1.75,1.3,4,2.62,5.26s3.73,2.62,5.29,2.27,3.39-2.5,4-4.25c1.26-3.5.56-7.33-2.31-9.63-3.51-2.8-7.77-4.64-11.57-7.1-1.73-1.11-4.2-2.54-4.43-4.11s1.58-3.78,2.93-5.35A8.35,8.35,0,0,1,259,337.1c3.11-1,6.3-1.63,10.42-2.65-3.44-2.56-6.31-4.67-9.15-6.81s-5.69-1.5-7.3,1.34a81.09,81.09,0,0,0-5.56,12.44c-1,2.72-2,4.9-5.25,4.76-3.11-.13-5-2.94-4-6.59a17.17,17.17,0,0,0-1.93-13.31C232.38,319.57,222.71,319.8,219.09,326Z"></path><path d="M211.62,303.21c-30.8-.61-60.65-6.92-90.26-14.62-14.21-3.7-28.2-8.31-42.46-11.81-6.42-1.57-13.25-1.72-19.92-1.93-2.42-.08-5.11,1.17-7.31,2.45C47,280,46,284.62,49.11,289.09c1.79,2.61,2.37,5-.25,7.26-2.19,1.88-5,1.14-7.43-1.76-6.28-7.42-4.32-18.86,4.41-24.82,7.33-5,15.75-6,24.06-4.26,11.32,2.32,22.47,5.54,33.6,8.68,26.16,7.4,52.49,14,79.5,17.45,23.57,3,47,2.8,70.23-2.9a20.86,20.86,0,0,1,2.56-.55c2.7-.29,4.74.64,5.32,3.47s-.72,5-3.61,5.56c-7.44,1.53-14.87,3.27-22.39,4.24C227.34,302.47,219.46,302.66,211.62,303.21Z"></path><path d="M382.3,173.57c0,3.19-2.24,5.46-5.14,5a65.34,65.34,0,0,1-37.93-20.07,4.21,4.21,0,0,1,.21-6.37c2.32-2.21,4.55-1.47,7,.35,5.64,4.24,11.22,8.69,17.33,12.14,4.13,2.33,9.1,3.23,13.75,4.53C380.14,169.89,382.14,170.92,382.3,173.57Z"></path><path d="M106.46,170.31c.33-7.44,1.89-14.55,5.61-21.07A24.7,24.7,0,0,1,124,138.34c3.37-1.43,5.79-.77,7,1.86s.26,5-3,6.53c-6.14,2.79-9,8.06-10.59,14.11a65.16,65.16,0,0,0-1.6,11.42c-.33,4.36-1.89,6.66-5,6.51s-4.44-2.38-4.34-6.59C106.47,171.56,106.46,170.93,106.46,170.31Z"></path><path d="M134.74,208.66a70.59,70.59,0,0,1-8.11-3.9c-5.34-3.38-10.45-7.12-15.7-10.65-2.42-1.63-3.4-3.67-1.93-6.32a4.28,4.28,0,0,1,6.4-1.74c5,3,9.88,6.21,14.54,9.71,2.88,2.17,5.59,3.39,9.23,2.33,2.7-.78,4.7.61,5.47,3.19s-.37,4.68-3,5.59C139.69,207.56,137.61,207.93,134.74,208.66Z"></path><path d="M142.88,152.77c-.86,9-1.64,16.63-6.89,23-1.63,2-2.63,4.49-3.9,6.77-1.46,2.62-3.72,3.44-6.3,2.17s-3.35-3.66-2-6.31c1.5-2.85,3.48-5.48,4.76-8.42a125.69,125.69,0,0,0,4.31-12.08c.53-1.64.43-3.47.85-5.15.66-2.63,2.44-4.1,5.2-3.72S142.91,151.32,142.88,152.77Z"></path><path d="M169.6,191.62c-.46,6.88-1.74,14.21-6.88,20.14a23.54,23.54,0,0,1-6.06,4.78,3.71,3.71,0,0,1-5.62-1.82c-.58-1.61-.31-4.81.76-5.53,6.92-4.63,7.88-11.64,8.47-18.94.07-.86.08-1.74.19-2.6a4.24,4.24,0,0,1,4.51-4.06c2.7,0,4.36,1.59,4.61,4.38C169.67,189,169.6,190,169.6,191.62Z"></path><path d="M349.6,49.93a5.66,5.66,0,0,1,5.65,5.71,5.81,5.81,0,0,1-5.75,5.68,5.7,5.7,0,0,1-5.59-5.79A5.49,5.49,0,0,1,349.6,49.93Z"></path><path d="M68.32,31.42a5.66,5.66,0,1,1-5.84,5.5A5.61,5.61,0,0,1,68.32,31.42Z"></path><path d="M42.58,71.57A5.73,5.73,0,0,1,36.73,66a5.79,5.79,0,0,1,5.5-5.92,5.74,5.74,0,1,1,.35,11.47Z"></path><path d="M355.25,84.42a5.65,5.65,0,0,1-5.88,5.47,5.66,5.66,0,0,1,.36-11.32A5.7,5.7,0,0,1,355.25,84.42Z"></path><path d="M364,64.27a5.56,5.56,0,0,1,5.53,5.78,5.66,5.66,0,1,1-11.32-.26A5.54,5.54,0,0,1,364,64.27Z"></path><path d="M93.94,345.87a6,6,0,1,1-.52,12,6,6,0,0,1,.52-12Z"></path><path d="M72.75,360.27a6,6,0,0,1-6,5.91,5.86,5.86,0,0,1-6-6.21,6,6,0,0,1,6.1-5.79A6.2,6.2,0,0,1,72.75,360.27Z"></path></g></g></svg>